<!-- <svg>
    <symbol width="24" height="24" viewBox="0 0 21 21" fill="white" id="search">
        <path
            d="M16.031 14.617L20.314 18.899L18.899 20.314L14.617 16.031C13.0237 17.3082 11.042 18.0029 9 18C4.032 18 0 13.968 0 9C0 4.032 4.032 0 9 0C13.968 0 18 4.032 18 9C18.0029 11.042 17.3082 13.0237 16.031 14.617ZM14.025 13.875C15.2941 12.5699 16.0029 10.8204 16 9C16 5.132 12.867 2 9 2C5.132 2 2 5.132 2 9C2 12.867 5.132 16 9 16C10.8204 16.0029 12.5699 15.2941 13.875 14.025L14.025 13.875Z" />
    </symbol>

    <symbol width="35px" height="35px" viewBox="0 0 24 24" transform="translate(7 7)" fill="white" id="user">
        <path fill-rule="evenodd" clip-rule="evenodd"
            d="M8 9C8 6.79086 9.79086 5 12 5C14.2091 5 16 6.79086 16 9C16 11.2091 14.2091 13 12 13C9.79086 13 8 11.2091 8 9ZM15.8243 13.6235C17.1533 12.523 18 10.8604 18 9C18 5.68629 15.3137 3 12 3C8.68629 3 6 5.68629 6 9C6 10.8604 6.84668 12.523 8.17572 13.6235C4.98421 14.7459 3 17.2474 3 20C3 20.5523 3.44772 21 4 21C4.55228 21 5 20.5523 5 20C5 17.7306 7.3553 15 12 15C16.6447 15 19 17.7306 19 20C19 20.5523 19.4477 21 20 21C20.5523 21 21 20.5523 21 20C21 17.2474 19.0158 14.7459 15.8243 13.6235Z"
            fill="#fff" />
    </symbol>
</svg> -->
<svg>
	<symbol id="icon-1" viewBox="0 0 32 32" xmlns="http://www.w3.org/2000/svg">
		<g><path d="M16,2A14,14,0,1,0,30,16,14,14,0,0,0,16,2Zm0,26A12,12,0,1,1,28,16,12,12,0,0,1,16,28Z"/><path d="M17,7H15v8.52a2,2,0,0,0,.75,1.56l4.63,3.7,1.24-1.56L17,15.52Z"/></g>
	</symbol>
	<symbol id="icon-2" viewBox="0 0 32 32" xmlns="http://www.w3.org/2000/svg">
		<g><polygon points="28.71 4.71 27.29 3.29 16 14.59 4.71 3.29 3.29 4.71 14.59 16 3.29 27.29 4.71 28.71 16 17.41 27.29 28.71 28.71 27.29 17.41 16 28.71 4.71"/></g>
	</symbol>
	<symbol id="icon-3" viewBox="0 0 32 32" xmlns="http://www.w3.org/2000/svg">
		<g><path d="M16,2,3,6.28V12C3,26.61,15.63,29.94,15.76,30L16,30l.24-.06c.13,0,12.76-3.36,12.76-18V6.28ZM27,12c0,12.1-9.31,15.45-11,16C14.31,27.45,5,24.1,5,12V7.72L16,4.05,27,7.72Z"/><path d="M11.59,15l-1.42,1.41,2.29,2.29a2,2,0,0,0,1.42.59,2,2,0,0,0,1.41-.59l6.54-6.53-1.42-1.42-6.53,6.54Z"/></g>
	</symbol>
</svg>